# xmcd
#
# Track frame offsets:
#	150
#	28042
#	48163
#	68758
#	89231
#	106364
#	124991
#	143388
#	166804
#	193518
#	226261
#	244696
#	272511
#
# Disc length: 3826 seconds
#
# Revision: 0
# Processed by: cddbd v1.5.2PL0 Copyright (c) Steve Scherf et al.
# Submitted via: EasyCDDAExtractor 5.0.2.1
#
DISCID=aa0ef00d
DTITLE=Botanica - Kinky*
DYEAR=2005
DGENRE=Alternative
TTITLE0=Swimming In The Ocean At Night
TTITLE1=Concrete Shoes
TTITLE2=Shy or Stupid
TTITLE3=Fragile
TTITLE4=Not A Bear
TTITLE5=Billboard Jesus
TTITLE6=Love Is The Difference
TTITLE7=Closed
TTITLE8=I Desire
TTITLE9=Eleganza and Wines
TTITLE10=Dead Prophet
TTITLE11=The Truth Fish
TTITLE12=How
EXTD=
EXTT0=
EXTT1=
EXTT2=
EXTT3=
EXTT4=
EXTT5=
EXTT6=
EXTT7=
EXTT8=
EXTT9=
EXTT10=
EXTT11=
EXTT12=
PLAYORDER=
